{
  "accessors": [
    {
      "bufferView": 2,
      "componentType": 5126,
      "count": 996,
      "max": [
        3.0191617012023926,
        7.176058769226074,
        3.378912925720215
      ],
      "min": [
        -3.0191617012023926,
        -4.79297399520874,
        -1.4557957649230957
      ],
      "type": "VEC3"
    },
    {
      "bufferView": 2,
      "byteOffset": 11952,
      "componentType": 5126,
      "count": 996,
      "max": [
        1.0,
        1.0,
        1.0
      ],
      "min": [
        -1.0,
        -1.0,
        -1.0
      ],
      "type": "VEC3"
    },
    {
      "bufferView": 3,
      "componentType": 5126,
      "count": 996,
      "max": [
        1.0,
        1.0,
        1.0,
        1.0
      ],
      "min": [
        -1.0,
        -0.9999996423721313,
        -1.0,
        1.0
      ],
      "type": "VEC4"
    },
    {
      "bufferView": 1,
      "componentType": 5126,
      "count": 996,
      "max": [
        0.9889339208602905,
        0.9936428070068359
      ],
      "min": [
        0.0063571929931640625,
        0.0063571929931640625
      ],
      "type": "VEC2"
    },
    {
      "bufferView": 1,
      "byteOffset": 7968,
      "componentType": 5126,
      "count": 996,
      "max": [
        0.9889339208602905,
        0.9936428070068359
      ],
      "min": [
        0.0063571929931640625,
        0.0063571929931640625
      ],
      "type": "VEC2"
    },
    {
      "bufferView": 1,
      "byteOffset": 15936,
      "componentType": 5126,
      "count": 996,
      "max": [
        0.9889339208602905,
        0.9936428070068359
      ],
      "min": [
        0.0063571929931640625,
        0.0063571929931640625
      ],
      "type": "VEC2"
    },
    {
      "bufferView": 0,
      "componentType": 5125,
      "count": 1752,
      "type": "SCALAR"
    },
    {
      "bufferView": 2,
      "byteOffset": 23904,
      "componentType": 5126,
      "count": 1428,
      "max": [
        3.1090476512908936,
        5.418359756469727,
        0.01385509967803955
      ],
      "min": [
        -3.1090476512908936,
        -3.044344902038574,
        -2.2643136978149414
      ],
      "type": "VEC3"
    },
    {
      "bufferView": 2,
      "byteOffset": 41040,
      "componentType": 5126,
      "count": 1428,
      "max": [
        1.0,
        1.0,
        0.9807853698730469
      ],
      "min": [
        -1.0,
        -1.0,
        -0.9807854294776917
      ],
      "type": "VEC3"
    },
    {
      "bufferView": 3,
      "byteOffset": 15936,
      "componentType": 5126,
      "count": 1428,
      "max": [
        1.0,
        0.9807854890823364,
        0.9820922017097473,
        1.0
      ],
      "min": [
        -1.0,
        -0.9807853698730469,
        -0.9807854294776917,
        1.0
      ],
      "type": "VEC4"
    },
    {
      "bufferView": 1,
      "byteOffset": 23904,
      "componentType": 5126,
      "count": 1428,
      "max": [
        0.994320273399353,
        0.8949703574180603
      ],
      "min": [
        0.005679607391357422,
        0.005679607391357422
      ],
      "type": "VEC2"
    },
    {
      "bufferView": 1,
      "byteOffset": 35328,
      "componentType": 5126,
      "count": 1428,
      "max": [
        0.994320273399353,
        0.8949703574180603
      ],
      "min": [
        0.005679607391357422,
        0.005679607391357422
      ],
      "type": "VEC2"
    },
    {
      "bufferView": 1,
      "byteOffset": 46752,
      "componentType": 5126,
      "count": 1428,
      "max": [
        0.994320273399353,
        0.8949703574180603
      ],
      "min": [
        0.005679607391357422,
        0.005679607391357422
      ],
      "type": "VEC2"
    },
    {
      "bufferView": 0,
      "byteOffset": 7008,
      "componentType": 5125,
      "count": 2268,
      "type": "SCALAR"
    }
  ],
  "asset": {
    "extras": {
      "author": "AnshiNoWara (https://sketchfab.com/AnshiNoWara)",
      "license": "CC-BY-4.0 (http://creativecommons.org/licenses/by/4.0/)",
      "source": "https://sketchfab.com/3d-models/low-poly-truck-441e86e9988546108bb801b95157064c",
      "title": "Low Poly Truck"
    },
    "generator": "Sketchfab-15.1.0",
    "version": "2.0"
  },
  "bufferViews": [
    {
      "buffer": 0,
      "byteLength": 16080,
      "name": "floatBufferViews",
      "target": 34963
    },
    {
      "buffer": 0,
      "byteLength": 58176,
      "byteOffset": 16080,
      "byteStride": 8,
      "name": "floatBufferViews",
      "target": 34962
    },
    {
      "buffer": 0,
      "byteLength": 58176,
      "byteOffset": 74256,
      "byteStride": 12,
      "name": "floatBufferViews",
      "target": 34962
    },
    {
      "buffer": 0,
      "byteLength": 38784,
      "byteOffset": 132432,
      "byteStride": 16,
      "name": "floatBufferViews",
      "target": 34962
    }
  ],
  "buffers": [
    {
      "byteLength": 171216,
      "uri": "scene.bin"
    }
  ],
  "images": [
    {
      "uri": "textures/Chassis_baseColor.png"
    },
    {
      "uri": "textures/Chassis_metallicRoughness.png"
    },
    {
      "uri": "textures/Chassis_normal.png"
    },
    {
      "uri": "textures/Wheels_baseColor.png"
    },
    {
      "uri": "textures/Wheels_metallicRoughness.png"
    },
    {
      "uri": "textures/Wheels_normal.png"
    }
  ],
  "materials": [
    {
      "doubleSided": true,
      "name": "Chassis",
      "normalTexture": {
        "index": 2,
        "texCoord": 1
      },
      "pbrMetallicRoughness": {
        "baseColorTexture": {
          "index": 0
        },
        "metallicRoughnessTexture": {
          "index": 1
        }
      }
    },
    {
      "doubleSided": true,
      "name": "Wheels",
      "normalTexture": {
        "index": 5
      },
      "pbrMetallicRoughness": {
        "baseColorTexture": {
          "index": 3
        },
        "metallicRoughnessTexture": {
          "index": 4
        }
      }
    }
  ],
  "meshes": [
    {
      "name": "Chassis_Chassis_0",
      "primitives": [
        {
          "attributes": {
            "NORMAL": 1,
            "POSITION": 0,
            "TANGENT": 2,
            "TEXCOORD_0": 3,
            "TEXCOORD_1": 4,
            "TEXCOORD_2": 5
          },
          "indices": 6,
          "material": 0,
          "mode": 4
        }
      ]
    },
    {
      "name": "Chassis_Wheels_0",
      "primitives": [
        {
          "attributes": {
            "NORMAL": 8,
            "POSITION": 7,
            "TANGENT": 9,
            "TEXCOORD_0": 10,
            "TEXCOORD_1": 11,
            "TEXCOORD_2": 12
          },
          "indices": 13,
          "material": 1,
          "mode": 4
        }
      ]
    }
  ],
  "nodes": [
    {
      "children": [
        1
      ],
      "matrix": [
        1.0,
        0.0,
        0.0,
        0.0,
        0.0,
        2.220446049250313e-16,
        -1.0,
        0.0,
        0.0,
        1.0,
        2.220446049250313e-16,
        0.0,
        0.0,
        0.0,
        0.0,
        1.0
      ],
      "name": "Sketchfab_model"
    },
    {
      "children": [
        2
      ],
      "matrix": [
        0.009999999776482582,
        0.0,
        0.0,
        0.0,
        0.0,
        0.0,
        0.009999999776482582,
        0.0,
        0.0,
        -0.009999999776482582,
        0.0,
        0.0,
        0.0,
        0.0,
        0.0,
        1.0
      ],
      "name": "cfe3586227e645d2a17eec73ee4b9b20.fbx"
    },
    {
      "children": [
        3
      ],
      "name": "RootNode"
    },
    {
      "children": [
        4,
        5
      ],
      "matrix": [
        100.0,
        0.0,
        0.0,
        0.0,
        0.0,
        -1.629206793918314e-05,
        -99.99999999999868,
        0.0,
        0.0,
        99.99999999999868,
        -1.629206793918314e-05,
        0.0,
        0.0,
        0.0,
        0.0,
        1.0
      ],
      "name": "Chassis"
    },
    {
      "mesh": 0,
      "name": "Chassis_Chassis_0"
    },
    {
      "mesh": 1,
      "name": "Chassis_Wheels_0"
    }
  ],
  "samplers": [
    {
      "magFilter": 9729,
      "minFilter": 9987,
      "wrapS": 10497,
      "wrapT": 10497
    }
  ],
  "scene": 0,
  "scenes": [
    {
      "name": "Sketchfab_Scene",
      "nodes": [
        0
      ]
    }
  ],
  "textures": [
    {
      "sampler": 0,
      "source": 0
    },
    {
      "sampler": 0,
      "source": 1
    },
    {
      "sampler": 0,
      "source": 2
    },
    {
      "sampler": 0,
      "source": 3
    },
    {
      "sampler": 0,
      "source": 4
    },
    {
      "sampler": 0,
      "source": 5
    }
  ]
}
